<svg width="279pt" height="109pt"
 viewBox="0.00 0.00 279.20 109.20" xmlns="http://www.w3.org/2000/svg" xmlns:xlink="http://www.w3.org/1999/xlink">
<g id="graph0" class="graph" transform="scale(1 1) rotate(0) translate(21.6 87.6)">
<title>ft&#45;autoclock&#45;in&#45;003</title>
<polygon fill="#fcfcfb" stroke="transparent" points="-21.6,21.6 -21.6,-87.6 257.6,-87.6 257.6,21.6 -21.6,21.6"/>
<text text-anchor="middle" x="118" y="-51.6" font-family="Helvetica,sans-Serif" font-weight="bold" font-size="13.00" fill="#d67e2a">ft&#45;autoclock&#45;in&#45;003 &#160;· &#160;INCUMBENT</text>
<!-- b1 -->
<g id="node1" class="node">
<title>b1</title>
<path fill="#ffffff" stroke="#52514e" d="M180.5,-40C180.5,-40 55.5,-40 55.5,-40 49.5,-40 43.5,-34 43.5,-28 43.5,-28 43.5,-16 43.5,-16 43.5,-10 49.5,-4 55.5,-4 55.5,-4 180.5,-4 180.5,-4 186.5,-4 192.5,-10 192.5,-16 192.5,-16 192.5,-28 192.5,-28 192.5,-34 186.5,-40 180.5,-40"/>
<path fill="none" stroke="#52514e" d="M184.5,-44C184.5,-44 51.5,-44 51.5,-44 45.5,-44 39.5,-38 39.5,-32 39.5,-32 39.5,-12 39.5,-12 39.5,-6 45.5,0 51.5,0 51.5,0 184.5,0 184.5,0 190.5,0 196.5,-6 196.5,-12 196.5,-12 196.5,-32 196.5,-32 196.5,-38 190.5,-44 184.5,-44"/>
<text text-anchor="middle" x="118" y="-25.2" font-family="Helvetica,sans-Serif" font-size="11.00" fill="#0b0b0b">b1</text>
<text text-anchor="middle" x="118" y="-13.2" font-family="Helvetica,sans-Serif" font-size="11.00" fill="#0b0b0b">pattern&#45;warranted&#45;choice&#45;p</text>
</g>
</g>
</svg>
