<svg width="348pt" height="109pt"
 viewBox="0.00 0.00 348.20 109.20" xmlns="http://www.w3.org/2000/svg" xmlns:xlink="http://www.w3.org/1999/xlink">
<g id="graph0" class="graph" transform="scale(1 1) rotate(0) translate(21.6 87.6)">
<title>ft&#45;canon&#45;fingerprint&#45;store&#45;003</title>
<polygon fill="#fcfcfb" stroke="transparent" points="-21.6,21.6 -21.6,-87.6 326.6,-87.6 326.6,21.6 -21.6,21.6"/>
<text text-anchor="middle" x="152.5" y="-51.6" font-family="Helvetica,sans-Serif" font-weight="bold" font-size="13.00" fill="#d67e2a">ft&#45;canon&#45;fingerprint&#45;store&#45;003 &#160;· &#160;INCUMBENT</text>
<!-- b1 -->
<g id="node1" class="node">
<title>b1</title>
<path fill="#ffffff" stroke="#52514e" d="M204.5,-40C204.5,-40 100.5,-40 100.5,-40 94.5,-40 88.5,-34 88.5,-28 88.5,-28 88.5,-16 88.5,-16 88.5,-10 94.5,-4 100.5,-4 100.5,-4 204.5,-4 204.5,-4 210.5,-4 216.5,-10 216.5,-16 216.5,-16 216.5,-28 216.5,-28 216.5,-34 210.5,-40 204.5,-40"/>
<path fill="none" stroke="#52514e" d="M208.5,-44C208.5,-44 96.5,-44 96.5,-44 90.5,-44 84.5,-38 84.5,-32 84.5,-32 84.5,-12 84.5,-12 84.5,-6 90.5,0 96.5,0 96.5,0 208.5,0 208.5,0 214.5,0 220.5,-6 220.5,-12 220.5,-12 220.5,-32 220.5,-32 220.5,-38 214.5,-44 208.5,-44"/>
<text text-anchor="middle" x="152.5" y="-25.2" font-family="Helvetica,sans-Serif" font-size="11.00" fill="#0b0b0b">b1</text>
<text text-anchor="middle" x="152.5" y="-13.2" font-family="Helvetica,sans-Serif" font-size="11.00" fill="#0b0b0b">library&#45;evidence&#45;ledger</text>
</g>
</g>
</svg>
