<svg width="730pt" height="161pt"
 viewBox="0.00 0.00 730.20 161.20" xmlns="http://www.w3.org/2000/svg" xmlns:xlink="http://www.w3.org/1999/xlink">
<g id="graph0" class="graph" transform="scale(1 1) rotate(0) translate(21.6 139.6)">
<title>ft&#45;canon&#45;fingerprint&#45;store&#45;002</title>
<polygon fill="#fcfcfb" stroke="transparent" points="-21.6,21.6 -21.6,-139.6 708.6,-139.6 708.6,21.6 -21.6,21.6"/>
<text text-anchor="middle" x="343.5" y="-103.6" font-family="Helvetica,sans-Serif" font-weight="bold" font-size="13.00" fill="#2a78d6">ft&#45;canon&#45;fingerprint&#45;store&#45;002 &#160;· &#160;GFN</text>
<!-- b1 -->
<g id="node1" class="node">
<title>b1</title>
<path fill="#ffffff" stroke="#52514e" d="M335,-40C335,-40 215,-40 215,-40 209,-40 203,-34 203,-28 203,-28 203,-16 203,-16 203,-10 209,-4 215,-4 215,-4 335,-4 335,-4 341,-4 347,-10 347,-16 347,-16 347,-28 347,-28 347,-34 341,-40 335,-40"/>
<path fill="none" stroke="#52514e" d="M339,-44C339,-44 211,-44 211,-44 205,-44 199,-38 199,-32 199,-32 199,-12 199,-12 199,-6 205,0 211,0 211,0 339,0 339,0 345,0 351,-6 351,-12 351,-12 351,-32 351,-32 351,-38 345,-44 339,-44"/>
<text text-anchor="middle" x="275" y="-25.2" font-family="Helvetica,sans-Serif" font-size="11.00" fill="#0b0b0b">b1</text>
<text text-anchor="middle" x="275" y="-13.2" font-family="Helvetica,sans-Serif" font-size="11.00" fill="#0b0b0b">handoff&#45;preserves&#45;context</text>
</g>
<!-- b3 -->
<g id="node3" class="node">
<title>b3</title>
<path fill="#ffffff" stroke="#52514e" d="M524,-69C524,-69 419,-69 419,-69 413,-69 407,-63 407,-57 407,-57 407,-45 407,-45 407,-39 413,-33 419,-33 419,-33 524,-33 524,-33 530,-33 536,-39 536,-45 536,-45 536,-57 536,-57 536,-63 530,-69 524,-69"/>
<path fill="none" stroke="#52514e" d="M528,-73C528,-73 415,-73 415,-73 409,-73 403,-67 403,-61 403,-61 403,-41 403,-41 403,-35 409,-29 415,-29 415,-29 528,-29 528,-29 534,-29 540,-35 540,-41 540,-41 540,-61 540,-61 540,-67 534,-73 528,-73"/>
<text text-anchor="middle" x="471.5" y="-54.2" font-family="Helvetica,sans-Serif" font-size="11.00" fill="#0b0b0b">b3</text>
<text text-anchor="middle" x="471.5" y="-42.2" font-family="Helvetica,sans-Serif" font-size="11.00" fill="#0b0b0b">state&#45;snapshot&#45;witness</text>
</g>
<!-- b1&#45;&gt;b3 -->
<g id="edge1" class="edge">
<title>b1&#45;&gt;b3</title>
<path fill="none" stroke="#52514e" d="M351.2,-33.21C364.88,-35.25 379.17,-37.38 392.91,-39.43"/>
<polygon fill="#52514e" stroke="#52514e" points="392.4,-42.89 402.81,-40.91 393.43,-35.97 392.4,-42.89"/>
<text text-anchor="middle" x="377" y="-40.8" font-family="Helvetica,sans-Serif" font-size="9.00">seq</text>
</g>
<!-- b2 -->
<g id="node2" class="node">
<title>b2</title>
<path fill="#ffffff" stroke="#52514e" d="M675,-69C675,-69 604,-69 604,-69 598,-69 592,-63 592,-57 592,-57 592,-45 592,-45 592,-39 598,-33 604,-33 604,-33 675,-33 675,-33 681,-33 687,-39 687,-45 687,-45 687,-57 687,-57 687,-63 681,-69 675,-69"/>
<text text-anchor="middle" x="639.5" y="-54.2" font-family="Helvetica,sans-Serif" font-size="11.00" fill="#0b0b0b">b2</text>
<text text-anchor="middle" x="639.5" y="-42.2" font-family="Helvetica,sans-Serif" font-size="11.00" fill="#0b0b0b">hexagram&#45;63&#45;jiji</text>
</g>
<!-- b3&#45;&gt;b2 -->
<g id="edge2" class="edge">
<title>b3&#45;&gt;b2</title>
<path fill="none" stroke="#52514e" d="M540.02,-51C553.9,-51 568.37,-51 581.82,-51"/>
<polygon fill="#52514e" stroke="#52514e" points="581.87,-54.5 591.87,-51 581.87,-47.5 581.87,-54.5"/>
<text text-anchor="middle" x="566" y="-53.8" font-family="Helvetica,sans-Serif" font-size="9.00">seq</text>
</g>
<!-- b4 -->
<g id="node4" class="node">
<title>b4</title>
<path fill="#ffffff" stroke="#52514e" stroke-dasharray="5,2" d="M127,-96C127,-96 12,-96 12,-96 6,-96 0,-90 0,-84 0,-84 0,-72 0,-72 0,-66 6,-60 12,-60 12,-60 127,-60 127,-60 133,-60 139,-66 139,-72 139,-72 139,-84 139,-84 139,-90 133,-96 127,-96"/>
<text text-anchor="middle" x="69.5" y="-81.2" font-family="Helvetica,sans-Serif" font-size="11.00" fill="#0b0b0b">b4</text>
<text text-anchor="middle" x="69.5" y="-69.2" font-family="Helvetica,sans-Serif" font-size="11.00" fill="#0b0b0b">interest&#45;event&#45;vocabulary</text>
</g>
<!-- b4&#45;&gt;b1 -->
<g id="edge5" class="edge">
<title>b4&#45;&gt;b1</title>
<path fill="none" stroke="#52514e" stroke-dasharray="5,2" d="M136.01,-59.97C152.25,-55.5 169.9,-50.65 186.99,-45.94"/>
<polygon fill="none" stroke="#52514e" points="187.13,-45.9 191.86,-40.46 198.7,-42.72 193.98,-48.17 187.13,-45.9"/>
<text text-anchor="middle" x="169" y="-55.8" font-family="Helvetica,sans-Serif" font-size="9.00">copar</text>
</g>
<!-- b4&#45;&gt;b3 -->
<g id="edge3" class="edge">
<title>b4&#45;&gt;b3</title>
<path fill="none" stroke="#52514e" stroke-dasharray="5,2" d="M139.26,-73.36C209.05,-68.65 317,-61.36 390.56,-56.4"/>
<polygon fill="none" stroke="#52514e" points="391,-56.37 396.71,-51.97 402.97,-55.56 397.25,-59.95 391,-56.37"/>
<text text-anchor="middle" x="275" y="-70.8" font-family="Helvetica,sans-Serif" font-size="9.00">copar</text>
</g>
<!-- b5 -->
<g id="node5" class="node">
<title>b5</title>
<path fill="#ffffff" stroke="#52514e" stroke-dasharray="5,2" d="M114.5,-40C114.5,-40 24.5,-40 24.5,-40 18.5,-40 12.5,-34 12.5,-28 12.5,-28 12.5,-16 12.5,-16 12.5,-10 18.5,-4 24.5,-4 24.5,-4 114.5,-4 114.5,-4 120.5,-4 126.5,-10 126.5,-16 126.5,-16 126.5,-28 126.5,-28 126.5,-34 120.5,-40 114.5,-40"/>
<text text-anchor="middle" x="69.5" y="-25.2" font-family="Helvetica,sans-Serif" font-size="11.00" fill="#0b0b0b">b5</text>
<text text-anchor="middle" x="69.5" y="-13.2" font-family="Helvetica,sans-Serif" font-size="11.00" fill="#0b0b0b">publication&#45;cadence</text>
</g>
<!-- b5&#45;&gt;b1 -->
<g id="edge4" class="edge">
<title>b5&#45;&gt;b1</title>
<path fill="none" stroke="#52514e" stroke-dasharray="5,2" d="M126.65,-22C145.24,-22 166.41,-22 186.77,-22"/>
<polygon fill="none" stroke="#52514e" points="186.99,-22 192.99,-18 198.99,-22 192.99,-26 186.99,-22"/>
<text text-anchor="middle" x="169" y="-24.8" font-family="Helvetica,sans-Serif" font-size="9.00">copar</text>
</g>
</g>
</svg>
