<svg width="663pt" height="157pt"
 viewBox="0.00 0.00 663.20 157.20" xmlns="http://www.w3.org/2000/svg" xmlns:xlink="http://www.w3.org/1999/xlink">
<g id="graph0" class="graph" transform="scale(1 1) rotate(0) translate(21.6 135.6)">
<title>ft&#45;chipwitz&#45;corps&#45;013</title>
<polygon fill="#fcfcfb" stroke="transparent" points="-21.6,21.6 -21.6,-135.6 641.6,-135.6 641.6,21.6 -21.6,21.6"/>
<text text-anchor="middle" x="310" y="-99.6" font-family="Helvetica,sans-Serif" font-weight="bold" font-size="13.00" fill="#2a78d6">ft&#45;chipwitz&#45;corps&#45;013 &#160;· &#160;GFN</text>
<!-- b1 -->
<g id="node1" class="node">
<title>b1</title>
<path fill="#ffffff" stroke="#52514e" d="M104,-92C104,-92 28,-92 28,-92 22,-92 16,-86 16,-80 16,-80 16,-68 16,-68 16,-62 22,-56 28,-56 28,-56 104,-56 104,-56 110,-56 116,-62 116,-68 116,-68 116,-80 116,-80 116,-86 110,-92 104,-92"/>
<text text-anchor="middle" x="66" y="-77.2" font-family="Helvetica,sans-Serif" font-size="11.00" fill="#0b0b0b">b1</text>
<text text-anchor="middle" x="66" y="-65.2" font-family="Helvetica,sans-Serif" font-size="11.00" fill="#0b0b0b">free&#45;solo&#45;vs&#45;rope</text>
</g>
<!-- b2 -->
<g id="node2" class="node">
<title>b2</title>
<path fill="#ffffff" stroke="#52514e" d="M322,-44C322,-44 204,-44 204,-44 198,-44 192,-38 192,-32 192,-32 192,-20 192,-20 192,-14 198,-8 204,-8 204,-8 322,-8 322,-8 328,-8 334,-14 334,-20 334,-20 334,-32 334,-32 334,-38 328,-44 322,-44"/>
<text text-anchor="middle" x="263" y="-29.2" font-family="Helvetica,sans-Serif" font-size="11.00" fill="#0b0b0b">b2</text>
<text text-anchor="middle" x="263" y="-17.2" font-family="Helvetica,sans-Serif" font-size="11.00" fill="#0b0b0b">determined&#45;fork&#45;proto&#45;psr</text>
</g>
<!-- b1&#45;&gt;b2 -->
<g id="edge3" class="edge">
<title>b1&#45;&gt;b2</title>
<path fill="none" stroke="#52514e" stroke-dasharray="5,2" d="M116.09,-60.72C127.22,-57.78 139,-54.73 150,-52 159.68,-49.59 169.84,-47.14 179.94,-44.74"/>
<polygon fill="none" stroke="#52514e" points="180.04,-44.72 184.96,-39.45 191.72,-41.96 186.8,-47.23 180.04,-44.72"/>
<text text-anchor="middle" x="162" y="-54.8" font-family="Helvetica,sans-Serif" font-size="9.00">copar</text>
</g>
<!-- b5 -->
<g id="node5" class="node">
<title>b5</title>
<path fill="#ffffff" stroke="#52514e" d="M608,-69C608,-69 551,-69 551,-69 545,-69 539,-63 539,-57 539,-57 539,-45 539,-45 539,-39 545,-33 551,-33 551,-33 608,-33 608,-33 614,-33 620,-39 620,-45 620,-45 620,-57 620,-57 620,-63 614,-69 608,-69"/>
<text text-anchor="middle" x="579.5" y="-54.2" font-family="Helvetica,sans-Serif" font-size="11.00" fill="#0b0b0b">b5</text>
<text text-anchor="middle" x="579.5" y="-42.2" font-family="Helvetica,sans-Serif" font-size="11.00" fill="#0b0b0b">consent&#45;gate</text>
</g>
<!-- b1&#45;&gt;b5 -->
<g id="edge5" class="edge">
<title>b1&#45;&gt;b5</title>
<path fill="none" stroke="#52514e" stroke-dasharray="5,2" d="M116.16,-72.41C194.6,-69.78 352.91,-64.11 487,-57 499.89,-56.32 513.79,-55.46 526.78,-54.62"/>
<polygon fill="none" stroke="#52514e" points="526.91,-54.61 532.63,-50.22 538.88,-53.82 533.16,-58.2 526.91,-54.61"/>
<text text-anchor="middle" x="364" y="-65.8" font-family="Helvetica,sans-Serif" font-size="9.00">copar</text>
</g>
<!-- b4 -->
<g id="node4" class="node">
<title>b4</title>
<path fill="#ffffff" stroke="#52514e" d="M471,-44C471,-44 410,-44 410,-44 404,-44 398,-38 398,-32 398,-32 398,-20 398,-20 398,-14 404,-8 410,-8 410,-8 471,-8 471,-8 477,-8 483,-14 483,-20 483,-20 483,-32 483,-32 483,-38 477,-44 471,-44"/>
<path fill="none" stroke="#52514e" d="M475,-48C475,-48 406,-48 406,-48 400,-48 394,-42 394,-36 394,-36 394,-16 394,-16 394,-10 400,-4 406,-4 406,-4 475,-4 475,-4 481,-4 487,-10 487,-16 487,-16 487,-36 487,-36 487,-42 481,-48 475,-48"/>
<text text-anchor="middle" x="440.5" y="-29.2" font-family="Helvetica,sans-Serif" font-size="11.00" fill="#0b0b0b">b4</text>
<text text-anchor="middle" x="440.5" y="-17.2" font-family="Helvetica,sans-Serif" font-size="11.00" fill="#0b0b0b">task&#45;as&#45;arrow</text>
</g>
<!-- b2&#45;&gt;b4 -->
<g id="edge2" class="edge">
<title>b2&#45;&gt;b4</title>
<path fill="none" stroke="#52514e" d="M334.12,-26C350.64,-26 368.04,-26 383.83,-26"/>
<polygon fill="#52514e" stroke="#52514e" points="383.95,-29.5 393.95,-26 383.95,-22.5 383.95,-29.5"/>
<text text-anchor="middle" x="364" y="-28.8" font-family="Helvetica,sans-Serif" font-size="9.00">seq</text>
</g>
<!-- b3 -->
<g id="node3" class="node">
<title>b3</title>
<path fill="#ffffff" stroke="#52514e" d="M120,-36C120,-36 12,-36 12,-36 6,-36 0,-30 0,-24 0,-24 0,-12 0,-12 0,-6 6,0 12,0 12,0 120,0 120,0 126,0 132,-6 132,-12 132,-12 132,-24 132,-24 132,-30 126,-36 120,-36"/>
<text text-anchor="middle" x="66" y="-21.2" font-family="Helvetica,sans-Serif" font-size="11.00" fill="#0b0b0b">b3</text>
<text text-anchor="middle" x="66" y="-9.2" font-family="Helvetica,sans-Serif" font-size="11.00" fill="#0b0b0b">reverse&#45;morphogenesis</text>
</g>
<!-- b3&#45;&gt;b2 -->
<g id="edge1" class="edge">
<title>b3&#45;&gt;b2</title>
<path fill="none" stroke="#52514e" d="M132.09,-17.88C145.93,-18.06 160.45,-18.4 174,-19 176.55,-19.11 179.13,-19.24 181.74,-19.38"/>
<polygon fill="#52514e" stroke="#52514e" points="181.71,-22.89 191.9,-19.98 182.12,-15.9 181.71,-22.89"/>
<text text-anchor="middle" x="162" y="-21.8" font-family="Helvetica,sans-Serif" font-size="9.00">seq</text>
</g>
<!-- b4&#45;&gt;b5 -->
<g id="edge4" class="edge">
<title>b4&#45;&gt;b5</title>
<path fill="none" stroke="#52514e" d="M487.12,-34.32C500.39,-36.75 514.96,-39.41 528.49,-41.87"/>
<polygon fill="#52514e" stroke="#52514e" points="528.13,-45.37 538.59,-43.72 529.39,-38.48 528.13,-45.37"/>
<text text-anchor="middle" x="513" y="-41.8" font-family="Helvetica,sans-Serif" font-size="9.00">seq</text>
</g>
</g>
</svg>
