<svg width="240pt" height="109pt"
 viewBox="0.00 0.00 240.20 109.20" xmlns="http://www.w3.org/2000/svg" xmlns:xlink="http://www.w3.org/1999/xlink">
<g id="graph0" class="graph" transform="scale(1 1) rotate(0) translate(21.6 87.6)">
<title>ft&#45;chipwitz&#45;corps&#45;012</title>
<polygon fill="#fcfcfb" stroke="transparent" points="-21.6,21.6 -21.6,-87.6 218.6,-87.6 218.6,21.6 -21.6,21.6"/>
<text text-anchor="middle" x="98.5" y="-51.6" font-family="Helvetica,sans-Serif" font-weight="bold" font-size="13.00" fill="#2a78d6">ft&#45;chipwitz&#45;corps&#45;012 &#160;· &#160;GFN</text>
<!-- b1 -->
<g id="node1" class="node">
<title>b1</title>
<path fill="#ffffff" stroke="#52514e" d="M157.5,-40C157.5,-40 39.5,-40 39.5,-40 33.5,-40 27.5,-34 27.5,-28 27.5,-28 27.5,-16 27.5,-16 27.5,-10 33.5,-4 39.5,-4 39.5,-4 157.5,-4 157.5,-4 163.5,-4 169.5,-10 169.5,-16 169.5,-16 169.5,-28 169.5,-28 169.5,-34 163.5,-40 157.5,-40"/>
<path fill="none" stroke="#52514e" d="M161.5,-44C161.5,-44 35.5,-44 35.5,-44 29.5,-44 23.5,-38 23.5,-32 23.5,-32 23.5,-12 23.5,-12 23.5,-6 29.5,0 35.5,0 35.5,0 161.5,0 161.5,0 167.5,0 173.5,-6 173.5,-12 173.5,-12 173.5,-32 173.5,-32 173.5,-38 167.5,-44 161.5,-44"/>
<text text-anchor="middle" x="98.5" y="-25.2" font-family="Helvetica,sans-Serif" font-size="11.00" fill="#0b0b0b">b1</text>
<text text-anchor="middle" x="98.5" y="-13.2" font-family="Helvetica,sans-Serif" font-size="11.00" fill="#0b0b0b">determined&#45;fork&#45;proto&#45;psr</text>
</g>
</g>
</svg>
