<svg width="501pt" height="155pt"
 viewBox="0.00 0.00 501.20 155.20" xmlns="http://www.w3.org/2000/svg" xmlns:xlink="http://www.w3.org/1999/xlink">
<g id="graph0" class="graph" transform="scale(1 1) rotate(0) translate(21.6 133.6)">
<title>ft&#45;futonzero&#45;generative&#45;013</title>
<polygon fill="#fcfcfb" stroke="transparent" points="-21.6,21.6 -21.6,-133.6 479.6,-133.6 479.6,21.6 -21.6,21.6"/>
<text text-anchor="middle" x="229" y="-97.6" font-family="Helvetica,sans-Serif" font-weight="bold" font-size="13.00" fill="#2a78d6">ft&#45;futonzero&#45;generative&#45;013 &#160;· &#160;GFN</text>
<!-- b1 -->
<g id="node1" class="node">
<title>b1</title>
<path fill="#ffffff" stroke="#52514e" d="M292,-36C292,-36 172,-36 172,-36 166,-36 160,-30 160,-24 160,-24 160,-12 160,-12 160,-6 166,0 172,0 172,0 292,0 292,0 298,0 304,-6 304,-12 304,-12 304,-24 304,-24 304,-30 298,-36 292,-36"/>
<text text-anchor="middle" x="232" y="-21.2" font-family="Helvetica,sans-Serif" font-size="11.00" fill="#0b0b0b">b1</text>
<text text-anchor="middle" x="232" y="-9.2" font-family="Helvetica,sans-Serif" font-size="11.00" fill="#0b0b0b">candidate&#45;pattern&#45;action&#45;s</text>
</g>
<!-- b5 -->
<g id="node5" class="node">
<title>b5</title>
<path fill="#ffffff" stroke="#52514e" d="M442,-62C442,-62 380,-62 380,-62 374,-62 368,-56 368,-50 368,-50 368,-38 368,-38 368,-32 374,-26 380,-26 380,-26 442,-26 442,-26 448,-26 454,-32 454,-38 454,-38 454,-50 454,-50 454,-56 448,-62 442,-62"/>
<path fill="none" stroke="#52514e" d="M446,-66C446,-66 376,-66 376,-66 370,-66 364,-60 364,-54 364,-54 364,-34 364,-34 364,-28 370,-22 376,-22 376,-22 446,-22 446,-22 452,-22 458,-28 458,-34 458,-34 458,-54 458,-54 458,-60 452,-66 446,-66"/>
<text text-anchor="middle" x="411" y="-47.2" font-family="Helvetica,sans-Serif" font-size="11.00" fill="#0b0b0b">b5</text>
<text text-anchor="middle" x="411" y="-35.2" font-family="Helvetica,sans-Serif" font-size="11.00" fill="#0b0b0b">advanceability</text>
</g>
<!-- b1&#45;&gt;b5 -->
<g id="edge3" class="edge">
<title>b1&#45;&gt;b5</title>
<path fill="none" stroke="#52514e" stroke-dasharray="5,2" d="M304.15,-27.92C318.04,-29.9 332.48,-31.99 346,-34 347.9,-34.28 349.83,-34.57 351.78,-34.87"/>
<polygon fill="none" stroke="#52514e" points="352.01,-34.9 358.54,-31.85 363.87,-36.71 357.33,-39.76 352.01,-34.9"/>
<text text-anchor="middle" x="334" y="-36.8" font-family="Helvetica,sans-Serif" font-size="9.00">copar</text>
</g>
<!-- b2 -->
<g id="node2" class="node">
<title>b2</title>
<path fill="#ffffff" stroke="#52514e" d="M86.5,-90C86.5,-90 13.5,-90 13.5,-90 7.5,-90 1.5,-84 1.5,-78 1.5,-78 1.5,-66 1.5,-66 1.5,-60 7.5,-54 13.5,-54 13.5,-54 86.5,-54 86.5,-54 92.5,-54 98.5,-60 98.5,-66 98.5,-66 98.5,-78 98.5,-78 98.5,-84 92.5,-90 86.5,-90"/>
<text text-anchor="middle" x="50" y="-75.2" font-family="Helvetica,sans-Serif" font-size="11.00" fill="#0b0b0b">b2</text>
<text text-anchor="middle" x="50" y="-63.2" font-family="Helvetica,sans-Serif" font-size="11.00" fill="#0b0b0b">status&#45;keywords</text>
</g>
<!-- b3 -->
<g id="node3" class="node">
<title>b3</title>
<path fill="#ffffff" stroke="#52514e" d="M268,-90C268,-90 196,-90 196,-90 190,-90 184,-84 184,-78 184,-78 184,-66 184,-66 184,-60 190,-54 196,-54 196,-54 268,-54 268,-54 274,-54 280,-60 280,-66 280,-66 280,-78 280,-78 280,-84 274,-90 268,-90"/>
<text text-anchor="middle" x="232" y="-75.2" font-family="Helvetica,sans-Serif" font-size="11.00" fill="#0b0b0b">b3</text>
<text text-anchor="middle" x="232" y="-63.2" font-family="Helvetica,sans-Serif" font-size="11.00" fill="#0b0b0b">mission&#45;lifecycle</text>
</g>
<!-- b2&#45;&gt;b3 -->
<g id="edge1" class="edge">
<title>b2&#45;&gt;b3</title>
<path fill="none" stroke="#52514e" d="M98.76,-72C121.82,-72 149.66,-72 173.84,-72"/>
<polygon fill="#52514e" stroke="#52514e" points="173.95,-75.5 183.95,-72 173.95,-68.5 173.95,-75.5"/>
<text text-anchor="middle" x="130" y="-74.8" font-family="Helvetica,sans-Serif" font-size="9.00">seq</text>
</g>
<!-- b3&#45;&gt;b5 -->
<g id="edge2" class="edge">
<title>b3&#45;&gt;b5</title>
<path fill="none" stroke="#52514e" d="M280.43,-64.5C303.1,-60.91 330.39,-56.59 354.07,-52.85"/>
<polygon fill="#52514e" stroke="#52514e" points="354.64,-56.3 363.97,-51.28 353.54,-49.39 354.64,-56.3"/>
<text text-anchor="middle" x="334" y="-59.8" font-family="Helvetica,sans-Serif" font-size="9.00">seq</text>
</g>
<!-- b4 -->
<g id="node4" class="node">
<title>b4</title>
<path fill="#ffffff" stroke="#52514e" stroke-dasharray="5,2" d="M88,-36C88,-36 12,-36 12,-36 6,-36 0,-30 0,-24 0,-24 0,-12 0,-12 0,-6 6,0 12,0 12,0 88,0 88,0 94,0 100,-6 100,-12 100,-12 100,-24 100,-24 100,-30 94,-36 88,-36"/>
<text text-anchor="middle" x="50" y="-21.2" font-family="Helvetica,sans-Serif" font-size="11.00" fill="#0b0b0b">b4</text>
<text text-anchor="middle" x="50" y="-9.2" font-family="Helvetica,sans-Serif" font-size="11.00" fill="#0b0b0b">hexagram&#45;07&#45;shi</text>
</g>
<!-- b4&#45;&gt;b1 -->
<g id="edge4" class="edge">
<title>b4&#45;&gt;b1</title>
<path fill="none" stroke="#52514e" stroke-dasharray="5,2" d="M100.19,-18C114.87,-18 131.39,-18 147.62,-18"/>
<polygon fill="none" stroke="#52514e" points="147.94,-18 153.94,-14 159.94,-18 153.94,-22 147.94,-18"/>
<text text-anchor="middle" x="130" y="-20.8" font-family="Helvetica,sans-Serif" font-size="9.00">copar</text>
</g>
</g>
</svg>
