<svg width="333pt" height="109pt"
 viewBox="0.00 0.00 333.20 109.20" xmlns="http://www.w3.org/2000/svg" xmlns:xlink="http://www.w3.org/1999/xlink">
<g id="graph0" class="graph" transform="scale(1 1) rotate(0) translate(21.6 87.6)">
<title>ft&#45;futonzero&#45;generative&#45;014</title>
<polygon fill="#fcfcfb" stroke="transparent" points="-21.6,21.6 -21.6,-87.6 311.6,-87.6 311.6,21.6 -21.6,21.6"/>
<text text-anchor="middle" x="145" y="-51.6" font-family="Helvetica,sans-Serif" font-weight="bold" font-size="13.00" fill="#d67e2a">ft&#45;futonzero&#45;generative&#45;014 &#160;· &#160;INCUMBENT</text>
<!-- b1 -->
<g id="node1" class="node">
<title>b1</title>
<path fill="#ffffff" stroke="#52514e" stroke-dasharray="5,2" d="M183,-40C183,-40 107,-40 107,-40 101,-40 95,-34 95,-28 95,-28 95,-16 95,-16 95,-10 101,-4 107,-4 107,-4 183,-4 183,-4 189,-4 195,-10 195,-16 195,-16 195,-28 195,-28 195,-34 189,-40 183,-40"/>
<path fill="none" stroke="#52514e" stroke-dasharray="5,2" d="M187,-44C187,-44 103,-44 103,-44 97,-44 91,-38 91,-32 91,-32 91,-12 91,-12 91,-6 97,0 103,0 103,0 187,0 187,0 193,0 199,-6 199,-12 199,-12 199,-32 199,-32 199,-38 193,-44 187,-44"/>
<text text-anchor="middle" x="145" y="-25.2" font-family="Helvetica,sans-Serif" font-size="11.00" fill="#0b0b0b">b1</text>
<text text-anchor="middle" x="145" y="-13.2" font-family="Helvetica,sans-Serif" font-size="11.00" fill="#0b0b0b">hexagram&#45;07&#45;shi</text>
</g>
</g>
</svg>
