<svg width="354pt" height="263pt"
 viewBox="0.00 0.00 354.20 263.20" xmlns="http://www.w3.org/2000/svg" xmlns:xlink="http://www.w3.org/1999/xlink">
<g id="graph0" class="graph" transform="scale(1 1) rotate(0) translate(21.6 241.6)">
<title>ft&#45;learning&#45;loop&#45;013</title>
<polygon fill="#fcfcfb" stroke="transparent" points="-21.6,21.6 -21.6,-241.6 332.6,-241.6 332.6,21.6 -21.6,21.6"/>
<text text-anchor="middle" x="155.5" y="-205.6" font-family="Helvetica,sans-Serif" font-weight="bold" font-size="13.00" fill="#2a78d6">ft&#45;learning&#45;loop&#45;013 &#160;· &#160;GFN</text>
<!-- b1 -->
<g id="node1" class="node">
<title>b1</title>
<path fill="#ffffff" stroke="#52514e" d="M76,-198C76,-198 36,-198 36,-198 30,-198 24,-192 24,-186 24,-186 24,-174 24,-174 24,-168 30,-162 36,-162 36,-162 76,-162 76,-162 82,-162 88,-168 88,-174 88,-174 88,-186 88,-186 88,-192 82,-198 76,-198"/>
<text text-anchor="middle" x="56" y="-183.2" font-family="Helvetica,sans-Serif" font-size="11.00" fill="#0b0b0b">b1</text>
<text text-anchor="middle" x="56" y="-171.2" font-family="Helvetica,sans-Serif" font-size="11.00" fill="#0b0b0b">invariants</text>
</g>
<!-- b4 -->
<g id="node4" class="node">
<title>b4</title>
<path fill="#ffffff" stroke="#52514e" d="M295,-117C295,-117 188,-117 188,-117 182,-117 176,-111 176,-105 176,-105 176,-93 176,-93 176,-87 182,-81 188,-81 188,-81 295,-81 295,-81 301,-81 307,-87 307,-93 307,-93 307,-105 307,-105 307,-111 301,-117 295,-117"/>
<path fill="none" stroke="#52514e" d="M299,-121C299,-121 184,-121 184,-121 178,-121 172,-115 172,-109 172,-109 172,-89 172,-89 172,-83 178,-77 184,-77 184,-77 299,-77 299,-77 305,-77 311,-83 311,-89 311,-89 311,-109 311,-109 311,-115 305,-121 299,-121"/>
<text text-anchor="middle" x="241.5" y="-102.2" font-family="Helvetica,sans-Serif" font-size="11.00" fill="#0b0b0b">b4</text>
<text text-anchor="middle" x="241.5" y="-90.2" font-family="Helvetica,sans-Serif" font-size="11.00" fill="#0b0b0b">graph&#45;memory&#45;contract</text>
</g>
<!-- b1&#45;&gt;b4 -->
<g id="edge2" class="edge">
<title>b1&#45;&gt;b4</title>
<path fill="none" stroke="#52514e" stroke-dasharray="5,2" d="M88.13,-166.26C113.08,-155.24 148.86,-139.45 179.48,-125.93"/>
<polygon fill="none" stroke="#52514e" points="179.52,-125.92 183.39,-119.84 190.5,-121.07 186.62,-127.15 179.52,-125.92"/>
<text text-anchor="middle" x="142" y="-148.8" font-family="Helvetica,sans-Serif" font-size="9.00">copar</text>
</g>
<!-- b2 -->
<g id="node2" class="node">
<title>b2</title>
<path fill="#ffffff" stroke="#52514e" stroke-dasharray="5,2" d="M97,-144C97,-144 15,-144 15,-144 9,-144 3,-138 3,-132 3,-132 3,-120 3,-120 3,-114 9,-108 15,-108 15,-108 97,-108 97,-108 103,-108 109,-114 109,-120 109,-120 109,-132 109,-132 109,-138 103,-144 97,-144"/>
<text text-anchor="middle" x="56" y="-129.2" font-family="Helvetica,sans-Serif" font-size="11.00" fill="#0b0b0b">b2</text>
<text text-anchor="middle" x="56" y="-117.2" font-family="Helvetica,sans-Serif" font-size="11.00" fill="#0b0b0b">ifr&#45;f7&#45;upa&#45;upekkha</text>
</g>
<!-- b2&#45;&gt;b4 -->
<g id="edge3" class="edge">
<title>b2&#45;&gt;b4</title>
<path fill="none" stroke="#52514e" stroke-dasharray="5,2" d="M109.09,-118.34C124.78,-116.03 142.39,-113.44 159.49,-110.92"/>
<polygon fill="none" stroke="#52514e" points="159.94,-110.85 165.29,-106.02 171.81,-109.11 166.46,-113.94 159.94,-110.85"/>
<text text-anchor="middle" x="142" y="-116.8" font-family="Helvetica,sans-Serif" font-size="9.00">copar</text>
</g>
<!-- b3 -->
<g id="node3" class="node">
<title>b3</title>
<path fill="#ffffff" stroke="#52514e" stroke-dasharray="5,2" d="M100,-90C100,-90 12,-90 12,-90 6,-90 0,-84 0,-78 0,-78 0,-66 0,-66 0,-60 6,-54 12,-54 12,-54 100,-54 100,-54 106,-54 112,-60 112,-66 112,-66 112,-78 112,-78 112,-84 106,-90 100,-90"/>
<text text-anchor="middle" x="56" y="-75.2" font-family="Helvetica,sans-Serif" font-size="11.00" fill="#0b0b0b">b3</text>
<text text-anchor="middle" x="56" y="-63.2" font-family="Helvetica,sans-Serif" font-size="11.00" fill="#0b0b0b">ukrn&#45;horizon&#45;bridge</text>
</g>
<!-- b3&#45;&gt;b4 -->
<g id="edge4" class="edge">
<title>b3&#45;&gt;b4</title>
<path fill="none" stroke="#52514e" stroke-dasharray="5,2" d="M112.06,-80.1C127.03,-82.3 143.57,-84.74 159.65,-87.1"/>
<polygon fill="none" stroke="#52514e" points="159.95,-87.15 166.47,-84.06 171.82,-88.9 165.31,-91.98 159.95,-87.15"/>
<text text-anchor="middle" x="142" y="-87.8" font-family="Helvetica,sans-Serif" font-size="9.00">copar</text>
</g>
<!-- b5 -->
<g id="node5" class="node">
<title>b5</title>
<path fill="#ffffff" stroke="#52514e" d="M93,-36C93,-36 19,-36 19,-36 13,-36 7,-30 7,-24 7,-24 7,-12 7,-12 7,-6 13,0 19,0 19,0 93,0 93,0 99,0 105,-6 105,-12 105,-12 105,-24 105,-24 105,-30 99,-36 93,-36"/>
<text text-anchor="middle" x="56" y="-21.2" font-family="Helvetica,sans-Serif" font-size="11.00" fill="#0b0b0b">b5</text>
<text text-anchor="middle" x="56" y="-9.2" font-family="Helvetica,sans-Serif" font-size="11.00" fill="#0b0b0b">hinge&#45;entry&#45;slots</text>
</g>
<!-- b5&#45;&gt;b4 -->
<g id="edge1" class="edge">
<title>b5&#45;&gt;b4</title>
<path fill="none" stroke="#52514e" d="M98.18,-36.18C122.66,-46.98 154.13,-60.87 181.25,-72.84"/>
<polygon fill="#52514e" stroke="#52514e" points="180.08,-76.15 190.64,-76.99 182.9,-69.75 180.08,-76.15"/>
<text text-anchor="middle" x="142" y="-60.8" font-family="Helvetica,sans-Serif" font-size="9.00">seq</text>
</g>
</g>
</svg>
