<svg width="348pt" height="109pt"
 viewBox="0.00 0.00 348.20 109.20" xmlns="http://www.w3.org/2000/svg" xmlns:xlink="http://www.w3.org/1999/xlink">
<g id="graph0" class="graph" transform="scale(1 1) rotate(0) translate(21.6 87.6)">
<title>ft&#45;operational&#45;vocabulary&#45;003</title>
<polygon fill="#fcfcfb" stroke="transparent" points="-21.6,21.6 -21.6,-87.6 326.6,-87.6 326.6,21.6 -21.6,21.6"/>
<text text-anchor="middle" x="152.5" y="-51.6" font-family="Helvetica,sans-Serif" font-weight="bold" font-size="13.00" fill="#d67e2a">ft&#45;operational&#45;vocabulary&#45;003 &#160;· &#160;INCUMBENT</text>
<!-- b1 -->
<g id="node1" class="node">
<title>b1</title>
<path fill="#ffffff" stroke="#52514e" d="M209.5,-40C209.5,-40 95.5,-40 95.5,-40 89.5,-40 83.5,-34 83.5,-28 83.5,-28 83.5,-16 83.5,-16 83.5,-10 89.5,-4 95.5,-4 95.5,-4 209.5,-4 209.5,-4 215.5,-4 221.5,-10 221.5,-16 221.5,-16 221.5,-28 221.5,-28 221.5,-34 215.5,-40 209.5,-40"/>
<path fill="none" stroke="#52514e" d="M213.5,-44C213.5,-44 91.5,-44 91.5,-44 85.5,-44 79.5,-38 79.5,-32 79.5,-32 79.5,-12 79.5,-12 79.5,-6 85.5,0 91.5,0 91.5,0 213.5,0 213.5,0 219.5,0 225.5,-6 225.5,-12 225.5,-12 225.5,-32 225.5,-32 225.5,-38 219.5,-44 213.5,-44"/>
<text text-anchor="middle" x="152.5" y="-25.2" font-family="Helvetica,sans-Serif" font-size="11.00" fill="#0b0b0b">b1</text>
<text text-anchor="middle" x="152.5" y="-13.2" font-family="Helvetica,sans-Serif" font-size="11.00" fill="#0b0b0b">constrain&#45;extraction&#45;to&#45;th</text>
</g>
</g>
</svg>
