<svg width="584pt" height="135pt"
 viewBox="0.00 0.00 584.20 135.20" xmlns="http://www.w3.org/2000/svg" xmlns:xlink="http://www.w3.org/1999/xlink">
<g id="graph0" class="graph" transform="scale(1 1) rotate(0) translate(21.6 113.6)">
<title>ft&#45;operational&#45;vocabulary&#45;002</title>
<polygon fill="#fcfcfb" stroke="transparent" points="-21.6,21.6 -21.6,-113.6 562.6,-113.6 562.6,21.6 -21.6,21.6"/>
<text text-anchor="middle" x="270.5" y="-77.6" font-family="Helvetica,sans-Serif" font-weight="bold" font-size="13.00" fill="#2a78d6">ft&#45;operational&#45;vocabulary&#45;002 &#160;· &#160;GFN</text>
<!-- b1 -->
<g id="node1" class="node">
<title>b1</title>
<path fill="#ffffff" stroke="#52514e" stroke-dasharray="5,2" d="M130,-40C130,-40 12,-40 12,-40 6,-40 0,-34 0,-28 0,-28 0,-16 0,-16 0,-10 6,-4 12,-4 12,-4 130,-4 130,-4 136,-4 142,-10 142,-16 142,-16 142,-28 142,-28 142,-34 136,-40 130,-40"/>
<text text-anchor="middle" x="71" y="-25.2" font-family="Helvetica,sans-Serif" font-size="11.00" fill="#0b0b0b">b1</text>
<text text-anchor="middle" x="71" y="-13.2" font-family="Helvetica,sans-Serif" font-size="11.00" fill="#0b0b0b">mission&#45;interface&#45;signatur</text>
</g>
<!-- b2 -->
<g id="node2" class="node">
<title>b2</title>
<path fill="#ffffff" stroke="#52514e" d="M332,-70C332,-70 214,-70 214,-70 208,-70 202,-64 202,-58 202,-58 202,-46 202,-46 202,-40 208,-34 214,-34 214,-34 332,-34 332,-34 338,-34 344,-40 344,-46 344,-46 344,-58 344,-58 344,-64 338,-70 332,-70"/>
<text text-anchor="middle" x="273" y="-55.2" font-family="Helvetica,sans-Serif" font-size="11.00" fill="#0b0b0b">b2</text>
<text text-anchor="middle" x="273" y="-43.2" font-family="Helvetica,sans-Serif" font-size="11.00" fill="#0b0b0b">explicit&#45;exit&#45;over&#45;abandon</text>
</g>
<!-- b1&#45;&gt;b2 -->
<g id="edge3" class="edge">
<title>b1&#45;&gt;b2</title>
<path fill="none" stroke="#52514e" stroke-dasharray="5,2" d="M142.23,-32.53C157.66,-34.85 174.13,-37.32 189.97,-39.7"/>
<polygon fill="none" stroke="#52514e" points="190.07,-39.71 196.6,-36.64 201.94,-41.49 195.41,-44.56 190.07,-39.71"/>
<text text-anchor="middle" x="172" y="-40.8" font-family="Helvetica,sans-Serif" font-size="9.00">copar</text>
</g>
<!-- b3 -->
<g id="node3" class="node">
<title>b3</title>
<path fill="#ffffff" stroke="#52514e" d="M525,-40C525,-40 420,-40 420,-40 414,-40 408,-34 408,-28 408,-28 408,-16 408,-16 408,-10 414,-4 420,-4 420,-4 525,-4 525,-4 531,-4 537,-10 537,-16 537,-16 537,-28 537,-28 537,-34 531,-40 525,-40"/>
<path fill="none" stroke="#52514e" d="M529,-44C529,-44 416,-44 416,-44 410,-44 404,-38 404,-32 404,-32 404,-12 404,-12 404,-6 410,0 416,0 416,0 529,0 529,0 535,0 541,-6 541,-12 541,-12 541,-32 541,-32 541,-38 535,-44 529,-44"/>
<text text-anchor="middle" x="472.5" y="-25.2" font-family="Helvetica,sans-Serif" font-size="11.00" fill="#0b0b0b">b3</text>
<text text-anchor="middle" x="472.5" y="-13.2" font-family="Helvetica,sans-Serif" font-size="11.00" fill="#0b0b0b">stack&#45;blocker&#45;detection</text>
</g>
<!-- b1&#45;&gt;b3 -->
<g id="edge1" class="edge">
<title>b1&#45;&gt;b3</title>
<path fill="none" stroke="#52514e" d="M142.14,-17.53C161.52,-16.48 182.57,-15.52 202,-15 265.09,-13.3 280.91,-13.27 344,-15 360.06,-15.44 377.24,-16.19 393.62,-17.04"/>
<polygon fill="#52514e" stroke="#52514e" points="393.53,-20.54 403.7,-17.59 393.91,-13.55 393.53,-20.54"/>
<text text-anchor="middle" x="273" y="-17.8" font-family="Helvetica,sans-Serif" font-size="9.00">seq</text>
</g>
<!-- b2&#45;&gt;b3 -->
<g id="edge2" class="edge">
<title>b2&#45;&gt;b3</title>
<path fill="none" stroke="#52514e" stroke-dasharray="5,2" d="M344.19,-41.34C359.65,-38.99 376.13,-36.49 391.93,-34.09"/>
<polygon fill="none" stroke="#52514e" points="391.99,-34.08 397.32,-29.22 403.86,-32.27 398.53,-37.13 391.99,-34.08"/>
<text text-anchor="middle" x="374" y="-39.8" font-family="Helvetica,sans-Serif" font-size="9.00">copar</text>
</g>
</g>
</svg>
