<svg width="535pt" height="155pt"
 viewBox="0.00 0.00 535.20 155.20" xmlns="http://www.w3.org/2000/svg" xmlns:xlink="http://www.w3.org/1999/xlink">
<g id="graph0" class="graph" transform="scale(1 1) rotate(0) translate(21.6 133.6)">
<title>ft&#45;pattern&#45;mining&#45;012</title>
<polygon fill="#fcfcfb" stroke="transparent" points="-21.6,21.6 -21.6,-133.6 513.6,-133.6 513.6,21.6 -21.6,21.6"/>
<text text-anchor="middle" x="246" y="-97.6" font-family="Helvetica,sans-Serif" font-weight="bold" font-size="13.00" fill="#2a78d6">ft&#45;pattern&#45;mining&#45;012 &#160;· &#160;GFN</text>
<!-- b1 -->
<g id="node1" class="node">
<title>b1</title>
<path fill="#ffffff" stroke="#52514e" d="M304.5,-90C304.5,-90 222.5,-90 222.5,-90 216.5,-90 210.5,-84 210.5,-78 210.5,-78 210.5,-66 210.5,-66 210.5,-60 216.5,-54 222.5,-54 222.5,-54 304.5,-54 304.5,-54 310.5,-54 316.5,-60 316.5,-66 316.5,-66 316.5,-78 316.5,-78 316.5,-84 310.5,-90 304.5,-90"/>
<text text-anchor="middle" x="263.5" y="-75.2" font-family="Helvetica,sans-Serif" font-size="11.00" fill="#0b0b0b">b1</text>
<text text-anchor="middle" x="263.5" y="-63.2" font-family="Helvetica,sans-Serif" font-size="11.00" fill="#0b0b0b">shape&#45;first&#45;identify</text>
</g>
<!-- b2 -->
<g id="node2" class="node">
<title>b2</title>
<path fill="#ffffff" stroke="#52514e" stroke-dasharray="5,2" d="M476,-62C476,-62 400,-62 400,-62 394,-62 388,-56 388,-50 388,-50 388,-38 388,-38 388,-32 394,-26 400,-26 400,-26 476,-26 476,-26 482,-26 488,-32 488,-38 488,-38 488,-50 488,-50 488,-56 482,-62 476,-62"/>
<path fill="none" stroke="#52514e" stroke-dasharray="5,2" d="M480,-66C480,-66 396,-66 396,-66 390,-66 384,-60 384,-54 384,-54 384,-34 384,-34 384,-28 390,-22 396,-22 396,-22 480,-22 480,-22 486,-22 492,-28 492,-34 492,-34 492,-54 492,-54 492,-60 486,-66 480,-66"/>
<text text-anchor="middle" x="438" y="-47.2" font-family="Helvetica,sans-Serif" font-size="11.00" fill="#0b0b0b">b2</text>
<text text-anchor="middle" x="438" y="-35.2" font-family="Helvetica,sans-Serif" font-size="11.00" fill="#0b0b0b">layered&#45;ingestion</text>
</g>
<!-- b1&#45;&gt;b2 -->
<g id="edge2" class="edge">
<title>b1&#45;&gt;b2</title>
<path fill="none" stroke="#52514e" d="M316.72,-63.52C334.71,-60.6 355.05,-57.3 373.82,-54.26"/>
<polygon fill="#52514e" stroke="#52514e" points="374.45,-57.7 383.76,-52.64 373.33,-50.79 374.45,-57.7"/>
<text text-anchor="middle" x="354" y="-60.8" font-family="Helvetica,sans-Serif" font-size="9.00">seq</text>
</g>
<!-- b3 -->
<g id="node3" class="node">
<title>b3</title>
<path fill="#ffffff" stroke="#52514e" d="M312,-36C312,-36 215,-36 215,-36 209,-36 203,-30 203,-24 203,-24 203,-12 203,-12 203,-6 209,0 215,0 215,0 312,0 312,0 318,0 324,-6 324,-12 324,-12 324,-24 324,-24 324,-30 318,-36 312,-36"/>
<text text-anchor="middle" x="263.5" y="-21.2" font-family="Helvetica,sans-Serif" font-size="11.00" fill="#0b0b0b">b3</text>
<text text-anchor="middle" x="263.5" y="-9.2" font-family="Helvetica,sans-Serif" font-size="11.00" fill="#0b0b0b">live&#45;sync&#45;source&#45;truth</text>
</g>
<!-- b3&#45;&gt;b2 -->
<g id="edge3" class="edge">
<title>b3&#45;&gt;b2</title>
<path fill="none" stroke="#52514e" stroke-dasharray="5,2" d="M324.35,-27.02C339.63,-29.32 356.13,-31.81 371.67,-34.15"/>
<polygon fill="none" stroke="#52514e" points="372.02,-34.21 378.55,-31.14 383.88,-35.99 377.35,-39.06 372.02,-34.21"/>
<text text-anchor="middle" x="354" y="-35.8" font-family="Helvetica,sans-Serif" font-size="9.00">copar</text>
</g>
<!-- b4 -->
<g id="node4" class="node">
<title>b4</title>
<path fill="#ffffff" stroke="#52514e" d="M131,-62C131,-62 12,-62 12,-62 6,-62 0,-56 0,-50 0,-50 0,-38 0,-38 0,-32 6,-26 12,-26 12,-26 131,-26 131,-26 137,-26 143,-32 143,-38 143,-38 143,-50 143,-50 143,-56 137,-62 131,-62"/>
<text text-anchor="middle" x="71.5" y="-47.2" font-family="Helvetica,sans-Serif" font-size="11.00" fill="#0b0b0b">b4</text>
<text text-anchor="middle" x="71.5" y="-35.2" font-family="Helvetica,sans-Serif" font-size="11.00" fill="#0b0b0b">structural&#45;tension&#45;as&#45;obse</text>
</g>
<!-- b4&#45;&gt;b1 -->
<g id="edge1" class="edge">
<title>b4&#45;&gt;b1</title>
<path fill="none" stroke="#52514e" d="M143.25,-54.43C162.03,-57.19 182.17,-60.16 200.45,-62.86"/>
<polygon fill="#52514e" stroke="#52514e" points="199.99,-66.33 210.4,-64.32 201.01,-59.4 199.99,-66.33"/>
<text text-anchor="middle" x="173" y="-62.8" font-family="Helvetica,sans-Serif" font-size="9.00">seq</text>
</g>
<!-- b4&#45;&gt;b3 -->
<g id="edge4" class="edge">
<title>b4&#45;&gt;b3</title>
<path fill="none" stroke="#52514e" stroke-dasharray="5,2" d="M143.25,-34.32C158.73,-32.2 175.14,-29.95 190.67,-27.83"/>
<polygon fill="none" stroke="#52514e" points="191.01,-27.78 196.41,-23.01 202.9,-26.16 197.49,-30.93 191.01,-27.78"/>
<text text-anchor="middle" x="173" y="-34.8" font-family="Helvetica,sans-Serif" font-size="9.00">copar</text>
</g>
</g>
</svg>
