<svg width="1310pt" height="317pt"
 viewBox="0.00 0.00 1310.20 317.20" xmlns="http://www.w3.org/2000/svg" xmlns:xlink="http://www.w3.org/1999/xlink">
<g id="graph0" class="graph" transform="scale(1 1) rotate(0) translate(21.6 295.6)">
<title>ft&#45;pattern&#45;mining&#45;013</title>
<polygon fill="#fcfcfb" stroke="transparent" points="-21.6,21.6 -21.6,-295.6 1288.6,-295.6 1288.6,21.6 -21.6,21.6"/>
<text text-anchor="middle" x="633.5" y="-259.6" font-family="Helvetica,sans-Serif" font-weight="bold" font-size="13.00" fill="#d67e2a">ft&#45;pattern&#45;mining&#45;013 &#160;· &#160;INCUMBENT</text>
<!-- b1 -->
<g id="node1" class="node">
<title>b1</title>
<path fill="#ffffff" stroke="#52514e" d="M554,-69C554,-69 434,-69 434,-69 428,-69 422,-63 422,-57 422,-57 422,-45 422,-45 422,-39 428,-33 434,-33 434,-33 554,-33 554,-33 560,-33 566,-39 566,-45 566,-45 566,-57 566,-57 566,-63 560,-69 554,-69"/>
<text text-anchor="middle" x="494" y="-54.2" font-family="Helvetica,sans-Serif" font-size="11.00" fill="#0b0b0b">b1</text>
<text text-anchor="middle" x="494" y="-42.2" font-family="Helvetica,sans-Serif" font-size="11.00" fill="#0b0b0b">derive&#45;exits&#45;on&#45;a&#45;minted&#45;s</text>
</g>
<!-- b3 -->
<g id="node3" class="node">
<title>b3</title>
<path fill="#ffffff" stroke="#52514e" d="M715,-69C715,-69 633,-69 633,-69 627,-69 621,-63 621,-57 621,-57 621,-45 621,-45 621,-39 627,-33 633,-33 633,-33 715,-33 715,-33 721,-33 727,-39 727,-45 727,-45 727,-57 727,-57 727,-63 721,-69 715,-69"/>
<text text-anchor="middle" x="674" y="-54.2" font-family="Helvetica,sans-Serif" font-size="11.00" fill="#0b0b0b">b3</text>
<text text-anchor="middle" x="674" y="-42.2" font-family="Helvetica,sans-Serif" font-size="11.00" fill="#0b0b0b">shape&#45;first&#45;identify</text>
</g>
<!-- b1&#45;&gt;b3 -->
<g id="edge3" class="edge">
<title>b1&#45;&gt;b3</title>
<path fill="none" stroke="#52514e" d="M566.12,-51C580.85,-51 596.25,-51 610.64,-51"/>
<polygon fill="#52514e" stroke="#52514e" points="610.91,-54.5 620.91,-51 610.91,-47.5 610.91,-54.5"/>
<text text-anchor="middle" x="595" y="-53.8" font-family="Helvetica,sans-Serif" font-size="9.00">seq</text>
</g>
<!-- b2 -->
<g id="node2" class="node">
<title>b2</title>
<path fill="#ffffff" stroke="#52514e" d="M346,-90C346,-90 224,-90 224,-90 218,-90 212,-84 212,-78 212,-78 212,-66 212,-66 212,-60 218,-54 224,-54 224,-54 346,-54 346,-54 352,-54 358,-60 358,-66 358,-66 358,-78 358,-78 358,-84 352,-90 346,-90"/>
<text text-anchor="middle" x="285" y="-75.2" font-family="Helvetica,sans-Serif" font-size="11.00" fill="#0b0b0b">b2</text>
<text text-anchor="middle" x="285" y="-63.2" font-family="Helvetica,sans-Serif" font-size="11.00" fill="#0b0b0b">what&#45;problem&#45;is&#45;this&#45;actua</text>
</g>
<!-- b2&#45;&gt;b1 -->
<g id="edge2" class="edge">
<title>b2&#45;&gt;b1</title>
<path fill="none" stroke="#52514e" stroke-dasharray="5,2" d="M358.11,-64.68C374.73,-63 392.54,-61.19 409.59,-59.46"/>
<polygon fill="none" stroke="#52514e" points="409.91,-59.43 415.48,-54.84 421.85,-58.22 416.28,-62.8 409.91,-59.43"/>
<text text-anchor="middle" x="389" y="-65.8" font-family="Helvetica,sans-Serif" font-size="9.00">copar</text>
</g>
<!-- b4 -->
<g id="node4" class="node">
<title>b4</title>
<path fill="#ffffff" stroke="#52514e" d="M919,-96C919,-96 799,-96 799,-96 793,-96 787,-90 787,-84 787,-84 787,-72 787,-72 787,-66 793,-60 799,-60 799,-60 919,-60 919,-60 925,-60 931,-66 931,-72 931,-72 931,-84 931,-84 931,-90 925,-96 919,-96"/>
<text text-anchor="middle" x="859" y="-81.2" font-family="Helvetica,sans-Serif" font-size="11.00" fill="#0b0b0b">b4</text>
<text text-anchor="middle" x="859" y="-69.2" font-family="Helvetica,sans-Serif" font-size="11.00" fill="#0b0b0b">patterns&#45;as&#45;categorical&#45;ob</text>
</g>
<!-- b3&#45;&gt;b4 -->
<g id="edge4" class="edge">
<title>b3&#45;&gt;b4</title>
<path fill="none" stroke="#52514e" d="M727.44,-58.74C742.75,-61 759.85,-63.52 776.5,-65.98"/>
<polygon fill="#52514e" stroke="#52514e" points="776.39,-69.5 786.79,-67.49 777.41,-62.57 776.39,-69.5"/>
<text text-anchor="middle" x="757" y="-67.8" font-family="Helvetica,sans-Serif" font-size="9.00">seq</text>
</g>
<!-- b5 -->
<g id="node5" class="node">
<title>b5</title>
<path fill="#ffffff" stroke="#52514e" d="M1056,-96C1056,-96 995,-96 995,-96 989,-96 983,-90 983,-84 983,-84 983,-72 983,-72 983,-66 989,-60 995,-60 995,-60 1056,-60 1056,-60 1062,-60 1068,-66 1068,-72 1068,-72 1068,-84 1068,-84 1068,-90 1062,-96 1056,-96"/>
<text text-anchor="middle" x="1025.5" y="-81.2" font-family="Helvetica,sans-Serif" font-size="11.00" fill="#0b0b0b">b5</text>
<text text-anchor="middle" x="1025.5" y="-69.2" font-family="Helvetica,sans-Serif" font-size="11.00" fill="#0b0b0b">task&#45;as&#45;arrow</text>
</g>
<!-- b4&#45;&gt;b5 -->
<g id="edge5" class="edge">
<title>b4&#45;&gt;b5</title>
<path fill="none" stroke="#52514e" d="M931.2,-78C945.04,-78 959.3,-78 972.39,-78"/>
<polygon fill="#52514e" stroke="#52514e" points="972.6,-81.5 982.6,-78 972.6,-74.5 972.6,-81.5"/>
<text text-anchor="middle" x="957" y="-80.8" font-family="Helvetica,sans-Serif" font-size="9.00">seq</text>
</g>
<!-- b6 -->
<g id="node6" class="node">
<title>b6</title>
<path fill="#ffffff" stroke="#52514e" stroke-dasharray="5,2" d="M1255,-96C1255,-96 1140,-96 1140,-96 1134,-96 1128,-90 1128,-84 1128,-84 1128,-72 1128,-72 1128,-66 1134,-60 1140,-60 1140,-60 1255,-60 1255,-60 1261,-60 1267,-66 1267,-72 1267,-72 1267,-84 1267,-84 1267,-90 1261,-96 1255,-96"/>
<text text-anchor="middle" x="1197.5" y="-81.2" font-family="Helvetica,sans-Serif" font-size="11.00" fill="#0b0b0b">b6</text>
<text text-anchor="middle" x="1197.5" y="-69.2" font-family="Helvetica,sans-Serif" font-size="11.00" fill="#0b0b0b">interest&#45;event&#45;vocabulary</text>
</g>
<!-- b5&#45;&gt;b6 -->
<g id="edge11" class="edge">
<title>b5&#45;&gt;b6</title>
<path fill="none" stroke="#52514e" stroke-dasharray="5,2" d="M1068.09,-78C1082.42,-78 1099.01,-78 1115.4,-78"/>
<polygon fill="none" stroke="#52514e" points="1115.86,-78 1121.86,-74 1127.86,-78 1121.86,-82 1115.86,-78"/>
<text text-anchor="middle" x="1098" y="-80.8" font-family="Helvetica,sans-Serif" font-size="9.00">copar</text>
</g>
<!-- b8 -->
<g id="node7" class="node">
<title>b8</title>
<path fill="#ffffff" stroke="#52514e" d="M341.5,-252C341.5,-252 228.5,-252 228.5,-252 222.5,-252 216.5,-246 216.5,-240 216.5,-240 216.5,-228 216.5,-228 216.5,-222 222.5,-216 228.5,-216 228.5,-216 341.5,-216 341.5,-216 347.5,-216 353.5,-222 353.5,-228 353.5,-228 353.5,-240 353.5,-240 353.5,-246 347.5,-252 341.5,-252"/>
<text text-anchor="middle" x="285" y="-237.2" font-family="Helvetica,sans-Serif" font-size="11.00" fill="#0b0b0b">b8</text>
<text text-anchor="middle" x="285" y="-225.2" font-family="Helvetica,sans-Serif" font-size="11.00" fill="#0b0b0b">deterministic&#45;ingest&#45;pipel</text>
</g>
<!-- b13 -->
<g id="node11" class="node">
<title>b13</title>
<path fill="#ffffff" stroke="#52514e" stroke-dasharray="5,2" d="M553,-198C553,-198 435,-198 435,-198 429,-198 423,-192 423,-186 423,-186 423,-174 423,-174 423,-168 429,-162 435,-162 435,-162 553,-162 553,-162 559,-162 565,-168 565,-174 565,-174 565,-186 565,-186 565,-192 559,-198 553,-198"/>
<path fill="none" stroke="#52514e" stroke-dasharray="5,2" d="M557,-202C557,-202 431,-202 431,-202 425,-202 419,-196 419,-190 419,-190 419,-170 419,-170 419,-164 425,-158 431,-158 431,-158 557,-158 557,-158 563,-158 569,-164 569,-170 569,-170 569,-190 569,-190 569,-196 563,-202 557,-202"/>
<text text-anchor="middle" x="494" y="-183.2" font-family="Helvetica,sans-Serif" font-size="11.00" fill="#0b0b0b">b13</text>
<text text-anchor="middle" x="494" y="-171.2" font-family="Helvetica,sans-Serif" font-size="11.00" fill="#0b0b0b">mission&#45;interface&#45;signatur</text>
</g>
<!-- b8&#45;&gt;b13 -->
<g id="edge7" class="edge">
<title>b8&#45;&gt;b13</title>
<path fill="none" stroke="#52514e" d="M353.78,-216.32C371.47,-211.7 390.75,-206.67 409.16,-201.87"/>
<polygon fill="#52514e" stroke="#52514e" points="410.2,-205.22 418.99,-199.31 408.43,-198.44 410.2,-205.22"/>
<text text-anchor="middle" x="389" y="-212.8" font-family="Helvetica,sans-Serif" font-size="9.00">seq</text>
</g>
<!-- b10 -->
<g id="node8" class="node">
<title>b10</title>
<path fill="#ffffff" stroke="#52514e" d="M121,-36C121,-36 30,-36 30,-36 24,-36 18,-30 18,-24 18,-24 18,-12 18,-12 18,-6 24,0 30,0 30,0 121,0 121,0 127,0 133,-6 133,-12 133,-12 133,-24 133,-24 133,-30 127,-36 121,-36"/>
<text text-anchor="middle" x="75.5" y="-21.2" font-family="Helvetica,sans-Serif" font-size="11.00" fill="#0b0b0b">b10</text>
<text text-anchor="middle" x="75.5" y="-9.2" font-family="Helvetica,sans-Serif" font-size="11.00" fill="#0b0b0b">tension&#45;before&#45;code</text>
</g>
<!-- b11 -->
<g id="node9" class="node">
<title>b11</title>
<path fill="#ffffff" stroke="#52514e" d="M344.5,-36C344.5,-36 225.5,-36 225.5,-36 219.5,-36 213.5,-30 213.5,-24 213.5,-24 213.5,-12 213.5,-12 213.5,-6 219.5,0 225.5,0 225.5,0 344.5,0 344.5,0 350.5,0 356.5,-6 356.5,-12 356.5,-12 356.5,-24 356.5,-24 356.5,-30 350.5,-36 344.5,-36"/>
<text text-anchor="middle" x="285" y="-21.2" font-family="Helvetica,sans-Serif" font-size="11.00" fill="#0b0b0b">b11</text>
<text text-anchor="middle" x="285" y="-9.2" font-family="Helvetica,sans-Serif" font-size="11.00" fill="#0b0b0b">structural&#45;tension&#45;as&#45;obse</text>
</g>
<!-- b10&#45;&gt;b11 -->
<g id="edge8" class="edge">
<title>b10&#45;&gt;b11</title>
<path fill="none" stroke="#52514e" stroke-dasharray="5,2" d="M133.2,-18C154.15,-18 178.35,-18 201.15,-18"/>
<polygon fill="none" stroke="#52514e" points="201.28,-18 207.28,-14 213.28,-18 207.28,-22 201.28,-18"/>
<text text-anchor="middle" x="181" y="-20.8" font-family="Helvetica,sans-Serif" font-size="9.00">copar</text>
</g>
<!-- b11&#45;&gt;b1 -->
<g id="edge1" class="edge">
<title>b11&#45;&gt;b1</title>
<path fill="none" stroke="#52514e" d="M356.66,-29.26C374.45,-32.1 393.68,-35.17 411.93,-38.08"/>
<polygon fill="#52514e" stroke="#52514e" points="411.53,-41.56 421.96,-39.67 412.63,-34.64 411.53,-41.56"/>
<text text-anchor="middle" x="389" y="-38.8" font-family="Helvetica,sans-Serif" font-size="9.00">seq</text>
</g>
<!-- b12 -->
<g id="node10" class="node">
<title>b12</title>
<path fill="#ffffff" stroke="#52514e" d="M333,-198C333,-198 237,-198 237,-198 231,-198 225,-192 225,-186 225,-186 225,-174 225,-174 225,-168 231,-162 237,-162 237,-162 333,-162 333,-162 339,-162 345,-168 345,-174 345,-174 345,-186 345,-186 345,-192 339,-198 333,-198"/>
<text text-anchor="middle" x="285" y="-183.2" font-family="Helvetica,sans-Serif" font-size="11.00" fill="#0b0b0b">b12</text>
<text text-anchor="middle" x="285" y="-171.2" font-family="Helvetica,sans-Serif" font-size="11.00" fill="#0b0b0b">task&#45;shape&#45;validation</text>
</g>
<!-- b12&#45;&gt;b13 -->
<g id="edge9" class="edge">
<title>b12&#45;&gt;b13</title>
<path fill="none" stroke="#52514e" d="M345.04,-180C364.85,-180 387.34,-180 408.7,-180"/>
<polygon fill="#52514e" stroke="#52514e" points="408.74,-183.5 418.74,-180 408.74,-176.5 408.74,-183.5"/>
<text text-anchor="middle" x="389" y="-182.8" font-family="Helvetica,sans-Serif" font-size="9.00">seq</text>
</g>
<!-- b14 -->
<g id="node12" class="node">
<title>b14</title>
<path fill="#ffffff" stroke="#52514e" d="M347,-144C347,-144 223,-144 223,-144 217,-144 211,-138 211,-132 211,-132 211,-120 211,-120 211,-114 217,-108 223,-108 223,-108 347,-108 347,-108 353,-108 359,-114 359,-120 359,-120 359,-132 359,-132 359,-138 353,-144 347,-144"/>
<text text-anchor="middle" x="285" y="-129.2" font-family="Helvetica,sans-Serif" font-size="11.00" fill="#0b0b0b">b14</text>
<text text-anchor="middle" x="285" y="-117.2" font-family="Helvetica,sans-Serif" font-size="11.00" fill="#0b0b0b">read&#45;existing&#45;seam&#45;before&#45;</text>
</g>
<!-- b14&#45;&gt;b13 -->
<g id="edge10" class="edge">
<title>b14&#45;&gt;b13</title>
<path fill="none" stroke="#52514e" stroke-dasharray="5,2" d="M355.22,-144.06C371.83,-148.39 389.78,-153.07 407.05,-157.58"/>
<polygon fill="none" stroke="#52514e" points="407.27,-157.63 414.08,-155.28 418.88,-160.66 412.06,-163.02 407.27,-157.63"/>
<text text-anchor="middle" x="389" y="-156.8" font-family="Helvetica,sans-Serif" font-size="9.00">copar</text>
</g>
<!-- b15 -->
<g id="node13" class="node">
<title>b15</title>
<path fill="#ffffff" stroke="#52514e" stroke-dasharray="5,2" d="M139,-144C139,-144 12,-144 12,-144 6,-144 0,-138 0,-132 0,-132 0,-120 0,-120 0,-114 6,-108 12,-108 12,-108 139,-108 139,-108 145,-108 151,-114 151,-120 151,-120 151,-132 151,-132 151,-138 145,-144 139,-144"/>
<text text-anchor="middle" x="75.5" y="-129.2" font-family="Helvetica,sans-Serif" font-size="11.00" fill="#0b0b0b">b15</text>
<text text-anchor="middle" x="75.5" y="-117.2" font-family="Helvetica,sans-Serif" font-size="11.00" fill="#0b0b0b">pattern&#45;becomes&#45;peripheral</text>
</g>
<!-- b15&#45;&gt;b14 -->
<g id="edge12" class="edge">
<title>b15&#45;&gt;b14</title>
<path fill="none" stroke="#52514e" stroke-dasharray="5,2" d="M151.12,-126C166.43,-126 182.66,-126 198.33,-126"/>
<polygon fill="none" stroke="#52514e" points="198.74,-126 204.74,-122 210.74,-126 204.74,-130 198.74,-126"/>
<text text-anchor="middle" x="181" y="-128.8" font-family="Helvetica,sans-Serif" font-size="9.00">copar</text>
</g>
<!-- b16 -->
<g id="node14" class="node">
<title>b16</title>
<path fill="#ffffff" stroke="#52514e" d="M704.5,-123C704.5,-123 643.5,-123 643.5,-123 637.5,-123 631.5,-117 631.5,-111 631.5,-111 631.5,-99 631.5,-99 631.5,-93 637.5,-87 643.5,-87 643.5,-87 704.5,-87 704.5,-87 710.5,-87 716.5,-93 716.5,-99 716.5,-99 716.5,-111 716.5,-111 716.5,-117 710.5,-123 704.5,-123"/>
<text text-anchor="middle" x="674" y="-108.2" font-family="Helvetica,sans-Serif" font-size="11.00" fill="#0b0b0b">b16</text>
<text text-anchor="middle" x="674" y="-96.2" font-family="Helvetica,sans-Serif" font-size="11.00" fill="#0b0b0b">full&#45;lift&#45;registry</text>
</g>
<!-- b16&#45;&gt;b4 -->
<g id="edge6" class="edge">
<title>b16&#45;&gt;b4</title>
<path fill="none" stroke="#52514e" stroke-dasharray="5,2" d="M716.53,-98.87C733.81,-96.32 754.53,-93.27 774.71,-90.29"/>
<polygon fill="none" stroke="#52514e" points="774.96,-90.25 780.31,-85.42 786.83,-88.5 781.48,-93.33 774.96,-90.25"/>
<text text-anchor="middle" x="757" y="-95.8" font-family="Helvetica,sans-Serif" font-size="9.00">copar</text>
</g>
</g>
</svg>
